<mxfile host="Electron" modified="2024-02-04T12:38:40.155Z" agent="Mozilla/5.0 (Windows NT 10.0; Win64; x64) AppleWebKit/537.36 (KHTML, like Gecko) draw.io/23.0.2 Chrome/120.0.6099.109 Electron/28.1.0 Safari/537.36" etag="0Z8muYamJMVUqRF6-XpV" version="23.0.2" type="device">
  <diagram name="Page-1" id="PX3VfjyInVto0y85tClm">
    <mxGraphModel dx="794" dy="511" grid="1" gridSize="10" guides="1" tooltips="1" connect="1" arrows="1" fold="1" page="1" pageScale="1" pageWidth="827" pageHeight="1169" math="0" shadow="0">
      <root>
        <mxCell id="0" />
        <mxCell id="1" parent="0" />
        <UserObject label="Stakeholder" type="externalEntity" source="" flow="Results of User Research" placeholders="1" id="NYvqgvZguDa37f-Pl949-1">
          <mxCell style="shape=rectangle;whiteSpace=wrap;html=1;fillColor=#ffffff;strokeColor=#000000;align=center;verticalAlign=middle;fontColor=#232F3E;" vertex="1" parent="1">
            <mxGeometry width="95" height="35" as="geometry" />
          </mxCell>
        </UserObject>
        <UserObject label="User Researcher" type="externalEntity" source="" flow="Test User Research Plan,Finalized OLPA Task Script,WIG Prototype" placeholders="1" id="NYvqgvZguDa37f-Pl949-2">
          <mxCell style="shape=rectangle;whiteSpace=wrap;html=1;fillColor=#ffffff;strokeColor=#000000;align=center;verticalAlign=middle;fontColor=#232F3E;" vertex="1" parent="1">
            <mxGeometry y="225" width="115" height="35" as="geometry" />
          </mxCell>
        </UserObject>
        <UserObject label="Research Participant" type="externalEntity" source="" flow="Appearance Feedback" placeholders="1" id="NYvqgvZguDa37f-Pl949-3">
          <mxCell style="shape=rectangle;whiteSpace=wrap;html=1;fillColor=#ffffff;strokeColor=#000000;align=center;verticalAlign=middle;fontColor=#232F3E;" vertex="1" parent="1">
            <mxGeometry y="482.5" width="135" height="35" as="geometry" />
          </mxCell>
        </UserObject>
        <UserObject label="Results of User Research" type="dataStore" source="5" flow="" placeholders="1" id="NYvqgvZguDa37f-Pl949-4">
          <mxCell style="html=1;dashed=0;whiteSpace=wrap;shape=partialRectangle;right=0;left=0;" vertex="1" parent="1">
            <mxGeometry x="490" y="95" width="165" height="35" as="geometry" />
          </mxCell>
        </UserObject>
        <UserObject label="Analyze User Research" type="process" source="2" flow="Results of User Research" placeholders="1" id="NYvqgvZguDa37f-Pl949-5">
          <mxCell style="shape=ellipse;perimeter=ellipsePerimeter;whiteSpace=wrap;html=1;fillColor=#ffffff;strokeColor=#000000;align=center;verticalAlign=middle;fontColor=#232F3E;" vertex="1" parent="1">
            <mxGeometry x="225" y="127.5" width="155" height="35" as="geometry" />
          </mxCell>
        </UserObject>
        <UserObject label="Test User Research Plan" type="process" source="2" flow="Effectiveness Feedback" placeholders="1" id="NYvqgvZguDa37f-Pl949-6">
          <mxCell style="shape=ellipse;perimeter=ellipsePerimeter;whiteSpace=wrap;html=1;fillColor=#ffffff;strokeColor=#000000;align=center;verticalAlign=middle;fontColor=#232F3E;" vertex="1" parent="1">
            <mxGeometry x="220" y="192.5" width="165" height="35" as="geometry" />
          </mxCell>
        </UserObject>
        <UserObject label="Finalize OLPA Task Script" type="process" source="2" flow="OLPA Task Script" placeholders="1" id="NYvqgvZguDa37f-Pl949-7">
          <mxCell style="shape=ellipse;perimeter=ellipsePerimeter;whiteSpace=wrap;html=1;fillColor=#ffffff;strokeColor=#000000;align=center;verticalAlign=middle;fontColor=#232F3E;" vertex="1" parent="1">
            <mxGeometry x="220" y="257.5" width="165" height="35" as="geometry" />
          </mxCell>
        </UserObject>
        <UserObject label="Finalize Second Task Script" type="process" source="2" flow="Second Task Script" placeholders="1" id="NYvqgvZguDa37f-Pl949-8">
          <mxCell style="shape=ellipse;perimeter=ellipsePerimeter;whiteSpace=wrap;html=1;fillColor=#ffffff;strokeColor=#000000;align=center;verticalAlign=middle;fontColor=#232F3E;" vertex="1" parent="1">
            <mxGeometry x="215" y="322.5" width="175" height="35" as="geometry" />
          </mxCell>
        </UserObject>
        <UserObject label="OLPA Task Script" type="dataStore" source="7" flow="" placeholders="1" id="NYvqgvZguDa37f-Pl949-9">
          <mxCell style="html=1;dashed=0;whiteSpace=wrap;shape=partialRectangle;right=0;left=0;" vertex="1" parent="1">
            <mxGeometry x="510" y="225" width="125" height="35" as="geometry" />
          </mxCell>
        </UserObject>
        <UserObject label="WIG Prototype" type="dataStore" source="8" flow="Prototype Appearance" placeholders="1" id="NYvqgvZguDa37f-Pl949-10">
          <mxCell style="html=1;dashed=0;whiteSpace=wrap;shape=partialRectangle;right=0;left=0;" vertex="1" parent="1">
            <mxGeometry x="520" y="290" width="105" height="35" as="geometry" />
          </mxCell>
        </UserObject>
        <UserObject label="Second Task Script" type="dataStore" source="8" flow="" placeholders="1" id="NYvqgvZguDa37f-Pl949-11">
          <mxCell style="html=1;dashed=0;whiteSpace=wrap;shape=partialRectangle;right=0;left=0;" vertex="1" parent="1">
            <mxGeometry x="505" y="355" width="135" height="35" as="geometry" />
          </mxCell>
        </UserObject>
        <UserObject label="Effectiveness Feedback" type="dataFlow" source="6" flow="User Researcher" placeholders="1" id="NYvqgvZguDa37f-Pl949-12">
          <mxCell style="whiteSpace=wrap;html=1;rounded=1;fillColor=#ffffff;strokeColor=#000000;" vertex="1" parent="1">
            <mxGeometry x="495" y="160" width="155" height="35" as="geometry" />
          </mxCell>
        </UserObject>
        <UserObject label="Prototype Appearance" type="dataFlow" source="3" flow="Research Participant" placeholders="1" id="NYvqgvZguDa37f-Pl949-13">
          <mxCell style="whiteSpace=wrap;html=1;rounded=1;fillColor=#ffffff;strokeColor=#000000;" vertex="1" parent="1">
            <mxGeometry x="235" y="450" width="145" height="35" as="geometry" />
          </mxCell>
        </UserObject>
        <UserObject label="Appearance Feedback" type="dataFlow" source="3" flow="Test User Research Plan" placeholders="1" id="NYvqgvZguDa37f-Pl949-14">
          <mxCell style="whiteSpace=wrap;html=1;rounded=1;fillColor=#ffffff;strokeColor=#000000;" vertex="1" parent="1">
            <mxGeometry x="235" y="515" width="145" height="35" as="geometry" />
          </mxCell>
        </UserObject>
        <mxCell id="NYvqgvZguDa37f-Pl949-15" value="" style="endArrow=blockThin;endFill=1;fontSize=11;orthogonal=1;noEdgeStyle=1;" edge="1" parent="1" source="NYvqgvZguDa37f-Pl949-5" target="NYvqgvZguDa37f-Pl949-4">
          <mxGeometry relative="1" as="geometry">
            <Array as="points">
              <mxPoint x="402" y="145" />
              <mxPoint x="478" y="112.5" />
            </Array>
          </mxGeometry>
        </mxCell>
        <mxCell id="NYvqgvZguDa37f-Pl949-16" value="Results of User Research" style="endArrow=blockThin;endFill=1;fontSize=11;orthogonal=1;noEdgeStyle=1;" edge="1" parent="1" source="NYvqgvZguDa37f-Pl949-2" target="NYvqgvZguDa37f-Pl949-5">
          <mxGeometry relative="1" as="geometry">
            <Array as="points">
              <mxPoint x="127" y="229.375" />
              <mxPoint x="203" y="145" />
            </Array>
          </mxGeometry>
        </mxCell>
        <mxCell id="NYvqgvZguDa37f-Pl949-17" value="Effectiveness Feedback" style="endArrow=blockThin;endFill=1;fontSize=11;orthogonal=1;noEdgeStyle=1;" edge="1" parent="1" source="NYvqgvZguDa37f-Pl949-2" target="NYvqgvZguDa37f-Pl949-6">
          <mxGeometry relative="1" as="geometry">
            <Array as="points">
              <mxPoint x="129" y="238.125" />
              <mxPoint x="203" y="210" />
            </Array>
          </mxGeometry>
        </mxCell>
        <mxCell id="NYvqgvZguDa37f-Pl949-18" value="OLPA Task Script" style="endArrow=blockThin;endFill=1;fontSize=11;orthogonal=1;noEdgeStyle=1;" edge="1" parent="1" source="NYvqgvZguDa37f-Pl949-2" target="NYvqgvZguDa37f-Pl949-7">
          <mxGeometry relative="1" as="geometry">
            <Array as="points">
              <mxPoint x="129" y="246.875" />
              <mxPoint x="203" y="275" />
            </Array>
          </mxGeometry>
        </mxCell>
        <mxCell id="NYvqgvZguDa37f-Pl949-19" value="Second Task Script" style="endArrow=blockThin;endFill=1;fontSize=11;orthogonal=1;noEdgeStyle=1;" edge="1" parent="1" source="NYvqgvZguDa37f-Pl949-2" target="NYvqgvZguDa37f-Pl949-8">
          <mxGeometry relative="1" as="geometry">
            <Array as="points">
              <mxPoint x="127" y="255.625" />
              <mxPoint x="203" y="340" />
            </Array>
          </mxGeometry>
        </mxCell>
        <mxCell id="NYvqgvZguDa37f-Pl949-20" value="" style="endArrow=blockThin;endFill=1;fontSize=11;orthogonal=1;noEdgeStyle=1;" edge="1" parent="1" source="NYvqgvZguDa37f-Pl949-7" target="NYvqgvZguDa37f-Pl949-9">
          <mxGeometry relative="1" as="geometry">
            <Array as="points">
              <mxPoint x="402" y="275" />
              <mxPoint x="478" y="242.5" />
            </Array>
          </mxGeometry>
        </mxCell>
        <mxCell id="NYvqgvZguDa37f-Pl949-21" value="Prototype Appearance" style="endArrow=blockThin;endFill=1;fontSize=11;orthogonal=1;noEdgeStyle=1;" edge="1" parent="1" source="NYvqgvZguDa37f-Pl949-8" target="NYvqgvZguDa37f-Pl949-10">
          <mxGeometry relative="1" as="geometry">
            <Array as="points">
              <mxPoint x="402" y="333.75" />
              <mxPoint x="478" y="307.5" />
            </Array>
          </mxGeometry>
        </mxCell>
        <mxCell id="NYvqgvZguDa37f-Pl949-22" value="" style="endArrow=blockThin;endFill=1;fontSize=11;orthogonal=1;noEdgeStyle=1;" edge="1" parent="1" source="NYvqgvZguDa37f-Pl949-8" target="NYvqgvZguDa37f-Pl949-11">
          <mxGeometry relative="1" as="geometry">
            <Array as="points">
              <mxPoint x="402" y="346.25" />
              <mxPoint x="478" y="372.5" />
            </Array>
          </mxGeometry>
        </mxCell>
        <mxCell id="NYvqgvZguDa37f-Pl949-23" value="User Researcher" style="endArrow=blockThin;endFill=1;fontSize=11;orthogonal=1;noEdgeStyle=1;" edge="1" parent="1" source="NYvqgvZguDa37f-Pl949-6" target="NYvqgvZguDa37f-Pl949-12">
          <mxGeometry relative="1" as="geometry">
            <Array as="points">
              <mxPoint x="402" y="210" />
              <mxPoint x="478" y="177.5" />
            </Array>
          </mxGeometry>
        </mxCell>
        <mxCell id="NYvqgvZguDa37f-Pl949-24" value="Research Participant" style="endArrow=blockThin;endFill=1;fontSize=11;orthogonal=1;noEdgeStyle=1;" edge="1" parent="1" source="NYvqgvZguDa37f-Pl949-3" target="NYvqgvZguDa37f-Pl949-13">
          <mxGeometry relative="1" as="geometry">
            <Array as="points">
              <mxPoint x="147" y="493.75" />
              <mxPoint x="223" y="467.5" />
            </Array>
          </mxGeometry>
        </mxCell>
        <mxCell id="NYvqgvZguDa37f-Pl949-25" value="Test User Research Plan" style="endArrow=blockThin;endFill=1;fontSize=11;orthogonal=1;noEdgeStyle=1;" edge="1" parent="1" source="NYvqgvZguDa37f-Pl949-3" target="NYvqgvZguDa37f-Pl949-14">
          <mxGeometry relative="1" as="geometry">
            <Array as="points">
              <mxPoint x="147" y="506.25" />
              <mxPoint x="223" y="532.5" />
            </Array>
          </mxGeometry>
        </mxCell>
      </root>
    </mxGraphModel>
  </diagram>
</mxfile>
